<svg width="32" height="33" viewBox="0 0 32 33" fill="none" xmlns="http://www.w3.org/2000/svg">
<g clip-path="url(#clip0_432_155)">
<path d="M24.3355 15.9369C24.3355 18.1381 24.3355 19.4705 24.3355 21.7405C22.807 23.8039 18.6057 25.1213 15.9999 25.1213C13.3892 25.1213 9.19285 23.8105 7.66446 21.7405C7.66436 20.1088 7.66431 18.1327 7.66431 15.9369C7.66431 10.8644 11.3963 6.75238 15.9999 6.75238C20.6035 6.75238 24.3355 10.8644 24.3355 15.9369Z" fill="white"/>
<path d="M8.5288 21.2423C8.96204 21.0122 9.44507 20.892 9.93558 20.892L22.2983 20.892C22.8177 20.892 23.3282 21.0268 23.7798 21.2833L25.8684 22.4694C26.6299 22.9019 27.1003 23.7101 27.1003 24.5858C27.1003 25.9299 26.0107 27.0195 24.6666 27.0195H7.30429C5.97625 27.0195 4.89966 25.9429 4.89966 24.6149C4.89966 23.7252 5.39089 22.9082 6.17669 22.491L8.5288 21.2423Z" fill="white"/>
<path fill-rule="evenodd" clip-rule="evenodd" d="M12.0085 28.6285C12.7385 30.243 14.2517 31.3521 16 31.3521C17.748 31.3521 19.2612 30.243 19.9912 28.6285H12.0085Z" fill="white"/>
<path fill-rule="evenodd" clip-rule="evenodd" d="M18.3804 7.45398C17.945 5.83949 17.0426 4.73035 16 4.73035C14.9574 4.73035 14.055 5.83949 13.6196 7.45398L18.3804 7.45398Z" fill="white"/>
<path d="M5.17294 14.9155C5.17722 13.9025 5.40162 12.4604 6.02802 11.0687C6.57149 9.75036 7.57524 8.3481 8.30579 7.68111" stroke="white" stroke-width="1.7" stroke-linecap="round"/>
<path d="M26.8654 14.8584C26.8429 13.8456 26.5925 12.4078 25.9409 11.0275C25.3735 9.71904 24.3443 8.33494 23.6016 7.68111" stroke="white" stroke-width="1.7" stroke-linecap="round"/>
</g>
<defs>
<clipPath id="clip0_432_155">
<rect width="32" height="32" fill="white" transform="translate(0 0.680725)"/>
</clipPath>
</defs>
</svg>
