<svg width="32" height="32" viewBox="0 0 32 32" fill="none" xmlns="http://www.w3.org/2000/svg">
<g clip-path="url(#clip0_312_42)">
<path d="M18.1296 4.86548L28.2568 23.3059C29.3548 25.3052 27.9082 27.75 25.6272 27.75H5.37277C3.09179 27.75 1.64522 25.3052 2.74322 23.3059L12.8704 4.86548C14.0097 2.79096 16.9903 2.79096 18.1296 4.86548Z" stroke="white" stroke-width="2"/>
<path d="M15.8301 21.7148C16.0234 21.7148 16.1992 21.7471 16.3574 21.8115C16.5215 21.8701 16.6621 21.9551 16.7793 22.0664C16.8965 22.1777 16.9873 22.3066 17.0518 22.4531C17.1162 22.5996 17.1484 22.7549 17.1484 22.9189C17.1484 23.0947 17.1162 23.2588 17.0518 23.4111C16.9873 23.5635 16.8965 23.6953 16.7793 23.8066C16.6621 23.9121 16.5215 23.9971 16.3574 24.0615C16.1992 24.126 16.0234 24.1582 15.8301 24.1582C15.6426 24.1582 15.4697 24.126 15.3115 24.0615C15.1533 23.9971 15.0186 23.9121 14.9072 23.8066C14.7959 23.6953 14.708 23.5635 14.6436 23.4111C14.585 23.2588 14.5557 23.0947 14.5557 22.9189C14.5557 22.7549 14.585 22.5996 14.6436 22.4531C14.708 22.3066 14.7959 22.1777 14.9072 22.0664C15.0186 21.9551 15.1533 21.8701 15.3115 21.8115C15.4697 21.7471 15.6426 21.7148 15.8301 21.7148ZM14.7842 14.0859C14.7607 13.7227 14.7344 13.4121 14.7051 13.1543C14.6816 12.8906 14.6553 12.668 14.626 12.4863C14.6025 12.3047 14.5762 12.1553 14.5469 12.0381C14.5234 11.915 14.5029 11.8096 14.4854 11.7217C14.5674 11.6748 14.667 11.6338 14.7842 11.5986C14.9014 11.5576 15.0215 11.5254 15.1445 11.502C15.2734 11.4727 15.3994 11.4521 15.5225 11.4404C15.6455 11.4229 15.7598 11.4141 15.8652 11.4141C16.1641 11.4141 16.4131 11.4785 16.6123 11.6074C16.8115 11.7363 16.9111 11.9619 16.9111 12.2842C16.8467 13.3682 16.791 14.2998 16.7441 15.0791C16.6973 15.8584 16.6562 16.5234 16.6211 17.0742C16.5918 17.625 16.5684 18.0791 16.5508 18.4365C16.5391 18.7939 16.5332 19.0898 16.5332 19.3242C16.5332 19.5469 16.5391 19.7285 16.5508 19.8691C16.5684 20.0098 16.5918 20.1445 16.6211 20.2734C16.5508 20.3262 16.4512 20.373 16.3223 20.4141C16.1934 20.4551 16.0703 20.4756 15.9531 20.4756C15.6895 20.4756 15.4902 20.417 15.3555 20.2998C15.2207 20.1826 15.1445 19.9834 15.127 19.7021L14.7842 14.0859Z" fill="white"/>
</g>
<defs>
<clipPath id="clip0_312_42">
<rect width="32" height="32" fill="white"/>
</clipPath>
</defs>
</svg>
