<svg width="28" height="23" viewBox="0 0 28 23" fill="none" xmlns="http://www.w3.org/2000/svg">
<path d="M13.9999 11.5356C14.9099 11.5356 15.6475 10.7925 15.6475 9.87593C15.6475 8.95935 14.9099 8.21631 13.9999 8.21631C13.09 8.21631 12.3523 8.95935 12.3523 9.87593C12.3523 10.7925 13.09 11.5356 13.9999 11.5356Z" fill="white"/>
<path fill-rule="evenodd" clip-rule="evenodd" d="M3.98019 1.24922C4.33955 0.82611 4.97988 0.82707 5.37179 1.22022L5.71092 1.56043C6.09883 1.94958 6.09603 2.57607 5.74712 3.00053C4.21272 4.8672 3.2905 7.26309 3.2905 9.87592C3.2905 12.4887 4.21272 14.8846 5.74712 16.7513C6.09603 17.1758 6.09883 17.8023 5.71092 18.1914L5.37179 18.5316C4.97988 18.9248 4.33955 18.9257 3.98019 18.5026C2.00939 16.1822 0.819092 13.1691 0.819092 9.87592C0.819092 6.58278 2.00939 3.56964 3.98019 1.24922ZM22.6281 18.5316C23.02 18.9248 23.6604 18.9257 24.0197 18.5026C25.9905 16.1822 27.1808 13.1691 27.1808 9.87592C27.1808 6.58278 25.9905 3.56964 24.0197 1.24922C23.6604 0.826111 23.02 0.82707 22.6281 1.22022L22.289 1.56043C21.9011 1.94958 21.9039 2.57607 22.2528 3.00053C23.7872 4.8672 24.7094 7.26309 24.7094 9.87592C24.7094 12.4887 23.7872 14.8846 22.2528 16.7513C21.9039 17.1758 21.9011 17.8023 22.289 18.1914L22.6281 18.5316Z" fill="white"/>
<path fill-rule="evenodd" clip-rule="evenodd" d="M8.67875 5.9583C9.00513 5.50926 9.64943 5.51152 10.0413 5.90467L10.3805 6.2449C10.7684 6.63403 10.7568 7.25921 10.4737 7.73014C10.0974 8.35623 9.88084 9.09055 9.88084 9.87583C9.88084 10.5938 10.0619 11.2692 10.3805 11.8582C10.642 12.3416 10.6253 12.9668 10.22 13.338L9.8664 13.6619C9.45713 14.0368 8.81355 14.0099 8.50782 13.5467C7.81382 12.4953 7.40942 11.2331 7.40942 9.87583C7.40942 8.4107 7.88066 7.05638 8.67875 5.9583ZM18.1333 13.6619C18.5426 14.0368 19.1862 14.0099 19.4919 13.5467C20.1859 12.4953 20.5903 11.2331 20.5903 9.87583C20.5903 8.41071 20.1191 7.05638 19.321 5.9583C18.9946 5.50926 18.3503 5.51152 17.9584 5.90467L17.6192 6.2449C17.2313 6.63403 17.2429 7.25921 17.526 7.73014C17.9023 8.35623 18.1189 9.09055 18.1189 9.87583C18.1189 10.5938 17.9378 11.2692 17.6192 11.8582C17.3577 12.3416 17.3744 12.9668 17.7797 13.338L18.1333 13.6619Z" fill="white"/>
<path d="M13.3319 15.199L13.9186 14.3801C13.9585 14.3244 14.0413 14.3244 14.0812 14.3801L14.6679 15.199L18.2351 20.1779L19.0641 21.335C19.1115 21.4012 19.0642 21.4933 18.9828 21.4933H17.567H10.4327H9.01693C8.93552 21.4933 8.88823 21.4012 8.93564 21.335L9.7647 20.1779L13.3319 15.199Z" stroke="white" stroke-width="2"/>
</svg>
